<svg width="100" height="109" viewBox="0 0 100 109" fill="none" xmlns="http://www.w3.org/2000/svg">
<path fill-rule="evenodd" clip-rule="evenodd" d="M31.6776 94.751L24.9875 69.6421L0 76.3692L6.85734 64.4454L22.4787 60.2242L31.7779 57.7015L34.2867 67.1194L38.468 82.8272L31.6776 94.751Z" fill="#30553A"/>
<path fill-rule="evenodd" clip-rule="evenodd" d="M100 32.6097L75.0293 39.3368L68.3392 14.2279L61.4986 26.1517L65.6799 41.8595L68.1887 51.2774L77.5213 48.7716L93.1427 44.5671L100 32.6097Z" fill="#30553A"/>
<path fill-rule="evenodd" clip-rule="evenodd" d="M6.15503 58.6603L24.4357 40.2617L6.15503 21.8631H19.853L31.293 33.3664L38.1504 40.2449L31.293 47.0897L19.853 58.593L6.15503 58.6603Z" fill="#30553A"/>
<path fill-rule="evenodd" clip-rule="evenodd" d="M93.8451 87.082L75.5644 68.7002L93.8451 50.3016H80.1471L68.7071 61.805L61.8832 68.7002L68.7405 75.5787L80.1806 87.082H93.8451Z" fill="#30553A"/>
<path fill-rule="evenodd" clip-rule="evenodd" d="M75.5143 90.5805L50.5435 83.8534L43.8535 108.979L36.9961 97.0385L41.1774 81.3139L43.6862 71.9128L53.0523 74.4354L68.6737 78.6399L75.5143 90.5805Z" fill="#30553A"/>
<path fill-rule="evenodd" clip-rule="evenodd" d="M56.1633 0L49.4732 25.1257L24.5024 18.3986L31.3263 30.2719L46.9477 34.4764L56.3138 36.999L58.8226 27.5811L63.0039 11.8733L56.1633 0Z" fill="#30553A"/>
</svg>
